<?xml version="1.0" standalone="no"?>
<!DOCTYPE svg PUBLIC "-//W3C//DTD SVG 20010904//EN"
 "http://www.w3.org/TR/2001/REC-SVG-20010904/DTD/svg10.dtd">
<svg version="1.0" xmlns="http://www.w3.org/2000/svg"
 width="502.000000pt" height="679.000000pt" viewBox="0 0 502.000000 679.000000"
 preserveAspectRatio="xMidYMid meet">

<g transform="translate(0.000000,679.000000) scale(0.100000,-0.100000)"
fill="#000000" stroke="none">
<path d="M2910 6529 c-145 -26 -227 -52 -344 -111 -130 -65 -243 -173 -301
-287 -83 -166 -143 -410 -152 -623 l-6 -138 -28 0 c-19 0 -34 -9 -47 -27 -28
-40 -62 -169 -62 -237 0 -32 -7 -114 -15 -183 l-16 -124 26 -54 c23 -50 28
-54 63 -57 41 -3 40 2 28 -117 -4 -42 -3 -68 5 -77 9 -12 9 -13 -4 -9 -8 4
-17 3 -20 -2 -3 -4 -15 -76 -26 -158 -32 -224 -40 -254 -83 -327 -28 -48 -47
-68 -66 -73 -15 -3 -40 -19 -57 -34 -18 -17 -51 -34 -82 -41 -29 -6 -97 -35
-150 -62 -152 -78 -257 -110 -360 -109 -64 1 -91 -9 -150 -54 -50 -38 -159
-75 -295 -101 -105 -19 -178 -52 -211 -95 -14 -19 -55 -65 -91 -104 -36 -38
-66 -73 -66 -77 0 -3 -40 -38 -88 -76 -151 -121 -223 -214 -286 -374 l-26 -66
0 -961 c0 -528 4 -962 9 -965 4 -3 11 -48 15 -100 8 -112 40 -336 61 -422 8
-33 15 -73 15 -90 0 -16 17 -66 37 -112 l37 -82 510 2 c500 3 511 3 521 23 18
36 40 61 57 68 10 3 18 13 18 21 0 13 5 14 27 5 30 -11 53 -6 53 14 0 7 9 23
20 35 19 20 22 20 59 7 36 -13 42 -12 64 5 24 19 43 70 26 70 -5 0 -9 7 -9 15
0 8 -8 15 -17 15 -14 0 -13 4 6 21 13 12 20 27 16 36 -7 20 22 53 47 53 15 0
18 -8 18 -49 0 -45 3 -51 35 -70 l35 -20 0 23 c0 13 11 40 25 60 30 45 31 57
5 81 -24 22 -27 77 -5 95 20 16 30 -8 21 -51 -7 -38 13 -35 32 4 7 15 27 34
45 44 18 9 44 25 59 36 18 13 41 20 68 19 22 -1 40 2 40 7 0 4 17 29 37 54 21
25 42 63 48 84 7 26 17 39 33 43 12 3 30 17 40 32 10 14 30 36 45 48 15 12 27
27 27 34 0 7 11 23 25 36 14 13 25 29 25 36 0 16 56 59 90 69 14 4 37 16 52
26 22 16 31 17 53 7 22 -10 25 -16 19 -41 -5 -26 -4 -28 17 -25 19 2 24 10 26
45 2 29 -1 43 -9 43 -7 0 -2 7 10 16 12 8 22 25 22 38 0 12 5 27 11 33 9 9 5
18 -15 36 -26 24 -26 24 -6 42 24 21 26 70 5 91 -11 12 -12 20 -5 35 13 22 30
25 30 5 0 -35 44 -29 54 7 3 12 -1 28 -9 37 -23 26 -18 46 21 85 l36 36 -16
43 c-20 52 -16 63 35 101 22 17 47 41 56 55 8 14 28 33 44 42 35 20 37 41 7
62 l-22 15 28 22 c15 12 44 39 63 60 28 30 44 39 84 44 52 7 61 18 29 35 -29
15 -25 40 5 40 29 0 30 3 9 35 -19 29 -15 71 6 67 10 -1 7 5 -7 16 l-21 19 39
43 c27 29 38 49 34 61 -8 23 20 65 45 72 12 3 20 14 20 26 0 22 27 41 59 41
12 0 21 6 21 13 0 7 14 29 30 47 30 33 39 73 20 85 -16 10 -12 29 10 53 28 30
25 46 -12 57 -37 11 -48 43 -28 81 10 18 10 26 -1 41 -31 43 -68 83 -78 83 -6
0 -8 7 -5 15 4 8 2 15 -3 15 -17 0 -32 45 -21 63 6 11 5 17 -2 17 -5 0 -10 10
-10 23 0 13 -9 26 -22 32 -14 7 -22 20 -23 38 -1 33 -23 51 -42 35 -9 -7 -17
-7 -27 1 -8 6 -20 10 -27 9 -17 -4 -57 69 -65 119 -9 62 2 95 51 149 46 50 57
87 30 98 -19 7 -20 63 -2 102 23 54 49 83 83 94 26 9 32 15 25 24 -6 7 -8 16
-4 19 11 12 23 8 23 -8 0 -10 10 -15 31 -15 26 0 31 3 26 20 -3 11 -1 23 4 26
12 7 11 51 -1 59 -5 3 -10 17 -10 31 l0 25 -29 -21 c-16 -11 -48 -27 -70 -35
l-41 -14 0 65 c0 68 17 117 45 128 55 21 119 -3 145 -53 37 -71 54 -251 25
-251 -8 0 -15 -9 -15 -20 0 -14 -7 -20 -24 -20 -16 0 -27 -8 -34 -27 -17 -43
-34 -143 -28 -158 3 -8 1 -38 -3 -67 -12 -76 -1 -162 21 -166 13 -2 26 14 48
62 30 62 55 91 188 218 33 32 67 75 76 95 29 64 31 67 72 88 25 13 59 20 95
20 l57 0 -23 40 c-13 22 -30 64 -39 93 -21 72 -43 106 -82 127 -35 18 -44 35
-21 35 7 0 22 -7 34 -15 29 -20 42 -13 79 43 71 107 136 246 158 336 l7 30
-19 -24 c-22 -27 -48 -22 -61 12 -10 25 -45 58 -62 58 -6 0 -25 11 -43 25 -18
14 -38 25 -44 25 -9 0 -12 -39 -12 -132 l-1 -133 -21 40 c-22 43 -35 55 -58
55 -23 0 -68 -43 -75 -73 -7 -28 -19 -35 -30 -17 -12 19 -98 63 -138 71 -56
10 -85 2 -89 -24 -5 -35 -23 -20 -23 18 0 36 -10 51 -35 57 -8 2 -29 13 -46
25 -17 12 -54 25 -82 29 -72 9 -54 24 29 24 59 0 77 -5 125 -31 41 -24 69 -32
114 -34 33 -1 68 -9 77 -16 15 -13 15 -12 4 8 -6 13 -19 27 -29 33 -46 26 -54
38 -42 59 16 31 -13 28 -43 -5 l-24 -26 -62 29 -62 29 24 22 c21 20 30 22 83
16 65 -8 112 -27 132 -56 19 -26 75 -21 82 7 4 12 23 26 50 36 24 9 46 21 48
27 2 6 -15 16 -37 23 -23 7 -46 18 -52 25 -8 10 -27 12 -69 7 -57 -6 -59 -5
-92 30 -46 49 -71 59 -123 51 -35 -5 -54 -1 -89 15 -49 24 -66 56 -58 109 6
46 48 74 168 111 56 17 111 39 122 48 31 27 65 138 57 189 -6 41 -5 42 25 49
40 9 38 21 -9 61 -21 19 -42 46 -46 61 -7 31 -68 136 -99 172 -27 30 -92 60
-132 61 -36 0 -115 33 -134 55 -29 35 -9 40 161 41 90 1 174 4 187 8 39 13 26
42 -43 97 l-64 52 22 28 c24 30 153 93 162 79 11 -17 114 -42 125 -30 3 3 14
10 25 16 11 6 22 19 24 29 4 22 25 45 40 45 6 0 11 5 11 10 0 6 11 15 25 20
14 5 25 16 25 25 0 8 6 15 13 15 33 0 1 110 -36 123 -7 2 -10 7 -7 10 3 4 35
-9 70 -29 36 -19 88 -45 115 -58 64 -29 181 -142 190 -182 3 -16 10 -37 16
-46 13 -25 11 -38 -5 -38 -7 0 -19 -7 -26 -15 -17 -20 -50 -19 -50 1 0 13 3
14 14 5 12 -10 13 -9 9 8 -3 11 -10 18 -17 15 -7 -3 -12 -33 -14 -82 -1 -84
14 -154 29 -131 7 12 9 12 9 0 0 -8 2 -12 5 -10 2 3 1 20 -4 37 -6 18 -6 32
-1 32 17 0 22 -23 22 -101 0 -43 3 -79 8 -79 4 0 14 -24 21 -52 14 -54 14 -59
17 -140 1 -27 6 -48 10 -48 32 0 65 430 43 556 -34 189 -95 309 -228 447 -152
158 -254 226 -406 266 -98 27 -275 26 -427 0z m924 -845 c3 -38 2 -52 -4 -39
-9 21 -14 112 -5 103 3 -2 7 -31 9 -64z m-1020 -279 c8 -8 24 -15 35 -15 13 0
21 -6 21 -16 0 -12 -6 -15 -22 -10 -13 3 -30 6 -39 6 -23 0 -53 25 -45 38 10
16 32 15 50 -3z m-113 -128 c-1 -12 -15 -9 -19 4 -3 6 1 10 8 8 6 -3 11 -8 11
-12z m213 -33 c40 -35 23 -48 -48 -40 -31 4 -56 10 -56 14 0 13 44 52 59 52 9
0 29 -12 45 -26z m69 -96 c41 -21 14 -33 -112 -48 -42 -5 -92 -12 -111 -15
-24 -5 -41 -2 -55 9 -19 14 -17 15 35 16 l55 1 -30 24 -29 24 84 3 c94 3 136
0 163 -14z m-352 -88 c13 -7 39 -24 57 -37 34 -26 61 -27 179 -6 28 4 31 3 26
-16 -3 -13 -1 -21 7 -21 25 0 2 -31 -65 -87 -38 -32 -80 -74 -92 -93 -12 -19
-33 -49 -47 -66 -44 -54 -33 -67 30 -37 l36 18 24 -28 c23 -26 33 -76 17 -78
-30 -3 -50 -10 -74 -28 -37 -28 -47 -26 -55 7 -17 73 -26 83 -129 127 -52 22
-65 40 -65 87 0 27 -4 38 -15 38 -23 0 -18 34 10 66 14 16 25 34 25 40 0 7 7
14 15 18 21 8 19 43 -4 56 -24 12 -37 50 -22 60 15 9 112 -5 142 -20z m-531
-590 c0 -5 -2 -10 -4 -10 -3 0 -8 5 -11 10 -3 6 -1 10 4 10 6 0 11 -4 11 -10z
m24 -85 c9 -13 16 -31 16 -40 0 -26 -17 -16 -31 18 -7 17 -14 35 -17 40 -10
19 18 4 32 -18z m416 -36 c0 -5 -7 -9 -15 -9 -15 0 -20 12 -9 23 8 8 24 -1 24
-14z m148 -17 c2 -7 -2 -10 -12 -6 -9 3 -16 11 -16 16 0 13 23 5 28 -10z m-26
-49 c18 -21 48 -107 48 -138 0 -40 37 -71 131 -111 50 -21 94 -45 96 -52 7
-17 -24 -62 -42 -62 -8 0 -15 -9 -15 -20 0 -11 -7 -23 -15 -27 -22 -8 -30 4
-15 22 7 9 10 18 7 21 -3 3 -13 -6 -22 -20 -12 -18 -26 -26 -46 -26 -29 0 -38
13 -19 25 6 3 10 13 10 21 0 12 -4 12 -20 4 -23 -12 -40 -6 -40 16 0 8 -18 21
-40 30 -42 17 -64 43 -55 66 3 8 -5 24 -18 36 -23 22 -24 25 -11 63 10 28 11
45 4 59 -14 26 -13 83 2 98 17 17 42 15 60 -5z m331 -32 c49 -17 98 -31 109
-31 12 0 51 -9 89 -20 48 -15 70 -26 74 -40 7 -21 39 -27 50 -10 14 23 32 -4
34 -52 2 -64 -17 -88 -70 -88 -33 0 -39 4 -57 38 l-19 37 -82 -3 c-59 -2 -90
2 -112 14 -58 30 -149 136 -149 174 0 27 6 26 133 -19z m326 -471 l-1 -25 -8
25 c-4 14 -8 32 -9 40 -1 13 0 13 9 0 5 -8 9 -26 9 -40z m-1316 -152 c21 -24
56 -68 78 -100 23 -34 63 -73 101 -100 43 -30 63 -51 64 -66 1 -12 -3 -22 -8
-22 -6 0 -8 7 -4 15 3 9 0 15 -9 15 -9 0 -12 -6 -9 -15 10 -25 -17 -17 -43 13
-29 32 -181 234 -206 275 -26 40 -9 33 36 -15z m339 -423 c15 -16 28 -34 28
-39 0 -13 -37 22 -73 69 -27 34 -28 37 -7 20 14 -10 37 -33 52 -50z m-618
-1841 c20 -19 20 -43 1 -68 -8 -11 -15 -30 -15 -41 0 -12 -13 -40 -28 -61 -16
-22 -53 -86 -82 -143 -49 -96 -65 -116 -197 -249 -79 -80 -143 -152 -143 -159
0 -8 -22 -38 -49 -66 -27 -29 -52 -63 -56 -75 -4 -14 -21 -30 -41 -38 -23 -10
-36 -23 -40 -42 -4 -15 -16 -38 -26 -52 -11 -14 -29 -41 -41 -60 -13 -19 -31
-36 -41 -38 -18 -4 -69 35 -62 47 3 3 -1 17 -8 30 -10 19 -10 30 0 60 7 20 13
44 14 55 0 11 5 16 13 13 20 -8 77 20 77 38 0 24 -70 21 -77 -4 -3 -11 -10
-18 -16 -16 -7 2 -24 6 -39 9 -22 5 -28 12 -28 31 0 52 -36 93 -100 116 -41
14 -57 15 -123 5 -80 -13 -97 -8 -97 25 0 9 -7 22 -16 29 -29 25 -36 49 -19
66 22 22 15 47 -15 54 -27 6 -27 5 -32 137 -2 45 0 81 5 80 20 -4 18 25 -2 30
-12 3 -21 9 -21 13 0 22 505 183 705 225 263 56 567 81 599 49z"/>
<path d="M747 802 c-21 -23 -22 -62 -3 -62 41 0 56 24 40 64 -8 21 -17 20 -37
-2z"/>
<path d="M615 719 c-4 -6 -1 -15 6 -20 11 -7 9 -9 -6 -10 l-20 0 20 -9 c28
-12 57 -12 50 0 -3 6 1 7 10 4 12 -5 14 -1 12 17 -3 18 -11 25 -34 27 -17 2
-34 -2 -38 -9z m61 -8 c-5 -8 -56 -3 -56 5 0 2 14 4 31 4 16 0 28 -4 25 -9z"/>
<path d="M797 674 c-3 -3 -1 -15 6 -25 15 -24 88 -26 108 -3 10 13 10 17 -2
25 -16 10 -102 12 -112 3z"/>
<path d="M1010 545 c0 -8 7 -15 15 -15 8 0 15 7 15 15 0 8 -7 15 -15 15 -8 0
-15 -7 -15 -15z"/>
<path d="M985 360 c-3 -5 -1 -10 4 -10 6 0 11 5 11 10 0 6 -2 10 -4 10 -3 0
-8 -4 -11 -10z"/>
<path d="M3583 5945 c0 -27 2 -38 4 -22 2 15 2 37 0 50 -2 12 -4 0 -4 -28z"/>
<path d="M3610 5980 c-1 -8 -2 -32 -2 -52 0 -32 -3 -38 -21 -39 -21 -1 -21 -2
-2 -6 11 -3 23 -10 27 -17 4 -6 8 12 8 39 0 35 3 46 10 35 5 -8 12 -12 15 -8
3 3 0 12 -8 19 -8 8 -16 21 -20 29 -5 13 -6 13 -7 0z"/>
<path d="M3671 5874 c0 -11 3 -14 6 -6 3 7 2 16 -1 19 -3 4 -6 -2 -5 -13z"/>
<path d="M3835 5590 c3 -5 8 -10 11 -10 2 0 4 5 4 10 0 6 -5 10 -11 10 -5 0
-7 -4 -4 -10z"/>
<path d="M3550 5343 c-14 -3 -50 -32 -81 -65 -55 -59 -58 -60 -103 -57 -46 4
-58 -5 -34 -29 9 -9 9 -24 0 -64 -13 -56 -4 -113 24 -153 8 -11 14 -28 14 -37
0 -17 -2 -17 -25 -2 -24 16 -25 15 -25 -4 0 -12 12 -28 29 -38 32 -19 81 -89
81 -116 0 -10 9 -44 20 -75 12 -34 20 -83 20 -121 0 -55 2 -63 18 -60 38 7 20
154 -32 258 -8 14 -17 46 -20 73 -6 41 -5 47 10 47 10 0 38 -21 63 -47 34 -37
45 -44 48 -31 3 9 -1 26 -6 37 -6 11 -11 29 -11 39 0 18 8 20 98 24 93 3 98 2
137 -25 l40 -29 6 34 c5 22 6 12 5 -32 -1 -55 -4 -65 -18 -64 -10 1 -18 -2
-18 -6 0 -5 -10 -10 -22 -12 -35 -5 -32 -25 6 -43 34 -16 41 -29 39 -74 -2
-34 18 14 47 114 28 96 33 129 38 265 l5 156 -47 41 c-26 23 -62 45 -79 48
-18 4 -58 18 -89 31 -55 23 -84 27 -138 17z m222 -200 c24 -22 25 -57 1 -45
-10 5 -34 12 -54 16 -37 7 -64 27 -52 39 13 14 87 7 105 -10z m-265 -99 c-3
-4 -19 -3 -34 1 l-28 8 25 7 c25 7 50 -4 37 -16z m313 0 c0 -8 -4 -12 -10 -9
-5 3 -10 10 -10 16 0 5 5 9 10 9 6 0 10 -7 10 -16z m-128 -21 c10 -9 18 -22
18 -29 0 -16 -54 -28 -75 -17 -14 8 -13 12 5 36 25 32 28 32 52 10z"/>
<path d="M3572 4898 c3 -7 13 -15 24 -17 16 -3 17 -1 5 13 -16 19 -34 21 -29
4z"/>
<path d="M3796 4632 c-3 -5 -7 -19 -10 -33 -3 -13 -10 -44 -16 -68 -17 -71 -5
-72 17 -1 28 87 33 110 23 110 -5 0 -11 -4 -14 -8z"/>
<path d="M3285 4320 c10 -11 22 -20 27 -20 15 0 9 28 -8 34 -30 11 -37 6 -19
-14z"/>
<path d="M3088 3693 c-27 -7 -22 -23 7 -23 16 0 25 6 25 15 0 15 -2 16 -32 8z"/>
<path d="M3720 3625 c26 -28 110 -59 123 -46 11 11 5 15 -77 45 l-68 24 22
-23z"/>
<path d="M3940 3400 c0 -5 13 -16 30 -25 38 -19 50 -43 50 -97 0 -24 9 -70 19
-103 21 -65 17 -127 -13 -209 -9 -22 -31 -97 -51 -165 -22 -79 -61 -180 -109
-280 -41 -86 -78 -167 -82 -181 -3 -14 -20 -52 -36 -84 -17 -33 -36 -78 -43
-101 -7 -23 -26 -62 -42 -86 -73 -107 -192 -419 -279 -729 -45 -163 -125 -408
-176 -540 -101 -260 -205 -506 -271 -640 -40 -80 -73 -148 -75 -152 -2 -5 207
-8 465 -8 456 0 469 1 481 20 10 17 16 18 37 8 19 -8 34 -8 62 1 21 6 49 12
63 14 21 2 25 -2 23 -21 -2 -19 2 -22 33 -22 l37 0 -7 46 c-7 53 7 82 30 63 8
-6 14 -18 14 -25 0 -19 37 -17 86 5 26 12 46 16 55 10 20 -13 63 -11 77 3 7 7
13 8 13 3 1 -6 2 -17 3 -25 2 -24 46 -25 53 -1 4 16 9 18 22 11 10 -5 23 -5
31 0 12 8 11 14 -7 39 -16 20 -19 31 -10 34 24 8 47 -6 53 -32 14 -70 56 -104
73 -59 5 13 16 30 25 37 29 24 18 37 -30 36 -51 0 -73 18 -60 50 5 14 9 15 22
5 11 -10 18 -10 26 -2 7 7 23 12 38 12 36 0 45 10 47 54 4 91 33 83 38 -11 4
-72 2 -68 21 -52 20 17 54 83 54 107 0 25 31 52 58 52 12 0 31 -9 42 -20 27
-27 44 -25 69 6 16 20 18 31 10 45 -11 21 -26 23 -63 9 -42 -16 -42 8 0 51 42
43 54 48 54 21 0 -10 5 -23 12 -30 12 -12 98 -17 98 -6 0 15 -54 69 -74 74
-28 8 -33 46 -7 59 13 7 21 7 23 1 2 -7 15 -6 36 2 30 12 32 15 32 60 0 36 -4
48 -15 48 -19 0 -19 9 0 34 18 24 20 72 3 83 -7 4 -25 6 -40 4 -33 -3 -37 14
-7 29 15 9 19 19 17 43 -3 28 -6 32 -32 30 -16 -1 -37 -11 -48 -23 -23 -24
-26 -25 -49 -4 -10 9 -48 23 -86 30 -37 8 -74 21 -83 29 -9 8 -22 15 -28 15
-6 0 -14 9 -17 20 -3 11 -12 20 -18 20 -11 0 -36 44 -91 160 -10 19 -28 53
-41 75 -13 22 -36 65 -51 95 -15 30 -34 63 -42 72 -27 31 -8 193 26 221 34 28
345 18 565 -19 l37 -7 0 245 c0 228 -1 246 -19 262 -22 20 -27 36 -40 129 -6
44 -6 78 1 101 9 30 8 40 -14 78 -13 24 -40 90 -58 148 -22 67 -50 128 -78
169 -24 35 -57 92 -74 125 -17 34 -41 75 -54 93 -14 18 -34 57 -46 88 -23 60
-47 82 -120 114 -25 10 -60 35 -79 54 -50 50 -72 61 -199 102 -63 21 -154 55
-203 76 -96 43 -97 43 -97 29z m1010 -2790 c0 -5 -7 -10 -15 -10 -8 0 -15 5
-15 10 0 6 7 10 15 10 8 0 15 -4 15 -10z"/>
<path d="M2986 2162 c-5 -9 57 -62 73 -62 19 0 12 26 -12 48 -24 22 -52 29
-61 14z"/>
<path d="M2858 1827 c-18 -15 -28 -32 -28 -50 0 -32 10 -34 36 -6 12 14 25 18
42 14 39 -10 46 5 16 36 -15 16 -30 29 -33 29 -3 -1 -18 -11 -33 -23z"/>
<path d="M3120 1375 c0 -2 10 -10 23 -16 20 -11 21 -11 8 4 -13 16 -31 23 -31
12z"/>
<path d="M3090 1326 c0 -9 5 -16 10 -16 6 0 10 4 10 9 0 6 -4 13 -10 16 -5 3
-10 -1 -10 -9z"/>
<path d="M3043 1183 c-18 -7 -16 -43 2 -43 18 0 31 28 19 39 -5 5 -15 6 -21 4z"/>
<path d="M2540 1061 c-7 -13 -7 -22 0 -26 15 -9 30 4 30 26 0 25 -16 25 -30 0z"/>
<path d="M2300 951 c0 -6 7 -8 15 -5 8 4 15 1 15 -5 0 -6 -4 -11 -10 -11 -5 0
-7 -7 -4 -15 10 -25 26 -17 22 12 -3 26 -38 48 -38 24z"/>
<path d="M1855 489 c-10 -15 1 -23 20 -15 9 3 13 10 10 16 -8 13 -22 13 -30
-1z"/>
<path d="M2770 469 c0 -5 5 -7 10 -4 6 3 10 8 10 11 0 2 -4 4 -10 4 -5 0 -10
-5 -10 -11z"/>
<path d="M1560 226 c0 -9 5 -16 10 -16 6 0 10 4 10 9 0 6 -4 13 -10 16 -5 3
-10 -1 -10 -9z"/>
<path d="M4620 77 c0 -8 7 -17 15 -21 8 -3 15 -2 15 3 0 5 -7 14 -15 21 -12
10 -15 10 -15 -3z"/>
</g>
</svg>
